HIERARCHY
ROOT Hips
{
	OFFSET 51.120300 -3.958674 85.689301
	CHANNELS 6 Xposition Yposition Zposition Xrotation Yrotation Zrotation
	JOINT spine
	{
		OFFSET 0.000000 -0.367607 6.392601
		CHANNELS 3 Xrotation Yrotation Zrotation
		JOINT spine1
		{
			OFFSET 0.000000 -0.000002 9.176109
			CHANNELS 3 Xrotation Yrotation Zrotation
			JOINT spine2
			{
				OFFSET 0.000000 -0.000001 8.792381
				CHANNELS 3 Xrotation Yrotation Zrotation
				JOINT Neck
				{
					OFFSET 0.000000 -1.076243 22.573692
					CHANNELS 3 Xrotation Yrotation Zrotation
					JOINT Head
					{
						OFFSET 0.000000 -0.000001 6.820114
						CHANNELS 3 Xrotation Yrotation Zrotation
						End Site
						{
							OFFSET 0.000000 5.444268 16.508499
						}
					}
				}
				JOINT RightShoulder
				{
					OFFSET -3.702209 0.515507 9.495087
					CHANNELS 3 Xrotation Yrotation Zrotation
					JOINT RightArm
					{
						OFFSET 0.000000 -0.000002 12.453697
						CHANNELS 3 Xrotation Yrotation Zrotation
						JOINT RightArmRoll
						{
							OFFSET 0.000000 -0.000001 6.286865
							CHANNELS 3 Xrotation Yrotation Zrotation
							JOINT RightForeArm
							{
								OFFSET 0.000000 -0.000003 18.311401
								CHANNELS 3 Xrotation Yrotation Zrotation
								JOINT RightForeArmRoll
								{
									OFFSET 0.000000 -0.000001 7.054825
									CHANNELS 3 Xrotation Yrotation Zrotation
									JOINT RightHand
									{
										OFFSET 0.000000 -0.000002 14.157501
										CHANNELS 3 Xrotation Yrotation Zrotation
										End Site
										{
											OFFSET 0.000000 0.000000 0.100006
										}
									}
								}
							}
						}
					}
				}
				JOINT LeftShoulder
				{
					OFFSET 3.702209 0.515507 9.495087
					CHANNELS 3 Xrotation Yrotation Zrotation
					JOINT LeftArm
					{
						OFFSET 0.000000 -0.000002 12.453697
						CHANNELS 3 Xrotation Yrotation Zrotation
						JOINT LeftArmRoll
						{
							OFFSET 0.000000 -0.000001 6.286865
							CHANNELS 3 Xrotation Yrotation Zrotation
							JOINT LeftForeArm
							{
								OFFSET 0.000000 -0.000003 18.311401
								CHANNELS 3 Xrotation Yrotation Zrotation
								JOINT LeftForeArmRoll
								{
									OFFSET 0.000000 -0.000001 7.054825
									CHANNELS 3 Xrotation Yrotation Zrotation
									JOINT LeftHand
									{
										OFFSET 0.000000 -0.000002 14.157501
										CHANNELS 3 Xrotation Yrotation Zrotation
										End Site
										{
											OFFSET 0.000000 0.000000 0.100006
										}
									}
								}
							}
						}
					}
				}
			}
		}
	}
	JOINT RightUpLeg
	{
		OFFSET -5.666149 0.871610 -1.039032
		CHANNELS 3 Xrotation Yrotation Zrotation
		JOINT RightUpLegRoll
		{
			OFFSET 0.000000 -0.000003 16.600502
			CHANNELS 3 Xrotation Yrotation Zrotation
			JOINT RightLeg
			{
				OFFSET 0.000000 0.000003 -20.557198
				CHANNELS 3 Xrotation Yrotation Zrotation
				JOINT RightLegRoll
				{
					OFFSET 0.000000 -0.000003 20.624397
					CHANNELS 3 Xrotation Yrotation Zrotation
					JOINT RightFoot
					{
						OFFSET 0.000000 -0.000003 17.166405
						CHANNELS 3 Xrotation Yrotation Zrotation
						JOINT RightToeBase
						{
							OFFSET 0.000000 -0.000002 14.350204
							CHANNELS 3 Xrotation Yrotation Zrotation
							End Site
							{
								OFFSET 0.006081 0.801059 6.949707
							}
						}
					}
				}
			}
		}
	}
	JOINT LeftUpLeg
	{
		OFFSET 5.666149 0.871610 -1.039032
		CHANNELS 3 Xrotation Yrotation Zrotation
		JOINT LeftUpLegRoll
		{
			OFFSET 0.000000 -0.000003 16.600601
			CHANNELS 3 Xrotation Yrotation Zrotation
			JOINT LeftLeg
			{
				OFFSET 0.000000 -0.000003 20.557098
				CHANNELS 3 Xrotation Yrotation Zrotation
				JOINT LeftLegRoll
				{
					OFFSET 0.000000 -0.000003 20.815094
					CHANNELS 3 Xrotation Yrotation Zrotation
					JOINT LeftFoot
					{
						OFFSET 0.000000 -0.000003 16.975693
						CHANNELS 3 Xrotation Yrotation Zrotation
						JOINT LeftToeBase
						{
							OFFSET 0.000000 -0.000002 14.350204
							CHANNELS 3 Xrotation Yrotation Zrotation
							End Site
							{
								OFFSET -0.027260 0.801060 6.949707
							}
						}
					}
				}
			}
		}
	}
}
MOTION
Frames: 11
Frame Time: 0.041667
50.439198 -4.118282 85.751991 -4.903841 1.592214 0.648197 -0.994782 0.211105 -0.112441 2.022057 0.426663 -0.223217 3.667161 0.423980 -0.228096 8.939072 -6.082408 0.157623 7.717593 2.536277 0.590816 -6.003291 -65.021605 -7.568002 -48.958396 -113.797365 -42.724992 0.000001 -0.000002 -0.000003 5.767796 -14.287402 0.358489 -0.000003 -0.000005 -3.001740 -5.000241 -7.998763 0.000179 0.423954 53.523555 -1.222063 -34.806446 117.616363 31.343895 0.000001 0.000002 0.000003 4.417434 9.509758 0.209191 -0.000000 0.000003 3.013831 -5.000233 7.998822 -0.000155 4.688530 -176.550555 0.418280 -179.999991 0.000005 -1.216998 175.073075 -2.012539 -0.477459 0.000001 0.000003 0.041509 68.912886 6.933834 2.031986 25.456959 -7.355616 0.000001 2.999342 172.599044 -1.792338 -0.000005 -0.000004 -1.124980 -7.136490 1.536410 0.626572 -0.000003 0.000003 -0.011265 69.330204 -6.447643 -3.267796 25.457665 7.355619 -0.001052 
50.428394 -4.115885 85.750595 -4.903537 1.596847 0.645057 -0.995693 0.210426 -0.112371 2.019626 0.424984 -0.222988 3.664731 0.422303 -0.227864 8.969458 -6.084275 0.159471 7.741348 2.536104 0.590319 -6.002503 -65.033072 -7.568034 -49.099747 -113.797959 -42.739192 0.000002 -0.000001 -0.000003 5.649397 -14.216150 0.333887 -0.000001 -0.000005 -3.001739 -5.000241 -7.998763 0.000179 0.432400 53.524320 -1.232179 -34.813204 117.594506 31.282109 -0.000000 0.000001 0.000003 4.414321 9.457056 0.213247 -0.000002 0.000003 3.013830 -5.000231 7.998823 -0.000156 4.686612 -176.557521 0.413925 -179.999991 0.000005 -1.216998 175.071901 -2.011542 -0.477415 0.000001 0.000002 0.041509 68.912791 6.933826 2.031892 25.456959 -7.355614 -0.000001 2.997089 172.585042 -1.814263 -0.000004 -0.000004 -1.125660 -7.141348 1.556060 0.627698 -0.000002 0.000003 -0.012016 69.331406 -6.450626 -3.259871 25.457664 7.355617 -0.001052 
50.429996 -4.118475 85.759300 -4.902662 1.601921 0.641878 -0.996736 0.209692 -0.112286 2.016915 0.423153 -0.222747 3.662020 0.420474 -0.227616 9.000115 -6.085987 0.161292 7.764234 2.535650 0.589801 -6.001314 -65.044766 -7.567622 -49.239711 -113.798130 -42.753661 0.000002 -0.000001 -0.000003 5.532163 -14.145883 0.309944 -0.000002 -0.000005 -3.001739 -5.000239 -7.998762 0.000179 0.441308 53.525583 -1.242774 -34.819068 117.572377 31.220327 0.000001 0.000002 0.000003 4.412206 9.405158 0.217158 -0.000000 0.000003 3.013830 -5.000230 7.998823 -0.000155 4.684020 -176.564488 0.408956 -179.999991 0.000005 -1.216998 175.070726 -2.009551 -0.477284 0.000001 0.000003 0.041509 68.912675 6.933822 2.031898 25.456959 -7.355616 0.000001 2.994106 172.568035 -1.838970 -0.000004 -0.000004 -1.126430 -7.146316 1.578369 0.628844 -0.000003 0.000003 -0.012828 69.332335 -6.454080 -3.250849 25.457664 7.355617 -0.001052 
50.424797 -4.091573 85.770493 -4.901374 1.607294 0.638671 -0.997863 0.208918 -0.112191 2.014014 0.421218 -0.222496 3.659119 0.418540 -0.227359 9.030979 -6.087593 0.163097 7.786497 2.534991 0.589270 -5.999787 -65.056568 -7.566846 -49.376763 -113.798581 -42.766249 0.000003 -0.000001 -0.000002 5.415788 -14.076211 0.286524 -0.000001 -0.000004 -3.001739 -5.000241 -7.998764 0.000179 0.450544 53.527352 -1.253709 -34.824553 117.550165 31.158749 0.000000 0.000000 0.000004 4.410793 9.353811 0.220971 -0.000002 0.000003 3.013830 -5.000233 7.998823 -0.000155 4.680957 -176.572452 0.403471 -179.999991 0.000005 -1.216998 175.069551 -2.007546 -0.477153 0.000001 0.000002 0.041509 68.912572 6.933816 2.031904 25.456959 -7.355616 0.000000 2.990631 172.550044 -1.865561 -0.000005 -0.000004 -1.127250 -7.151382 1.602532 0.630003 -0.000003 0.000003 -0.013684 69.333052 -6.457827 -3.241093 25.457665 7.355617 -0.001052 
50.420696 -4.097043 85.767593 -4.899856 1.612857 0.635449 -0.999045 0.208122 -0.112090 2.011004 0.419221 -0.222240 3.656097 0.416544 -0.227096 9.061954 -6.089139 0.164893 7.808405 2.534224 0.588730 -5.998094 -65.068473 -7.565891 -49.513097 -113.798881 -42.778759 0.000003 -0.000002 -0.000002 5.299928 -14.007045 0.263552 -0.000001 -0.000005 -3.001740 -5.000241 -7.998762 0.000179 0.459965 53.529220 -1.264835 -34.830611 117.526956 31.098254 0.000001 0.000001 0.000004 4.409769 9.302796 0.224727 0.000000 0.000003 3.013830 -5.000230 7.998823 -0.000156 4.677620 -176.580402 0.397742 -179.999991 0.000005 -1.216998 175.068363 -2.006550 -0.477110 0.000001 0.000002 0.041509 68.912572 6.933816 2.031803 25.456960 -7.355614 -0.000001 2.986855 172.531043 -1.893253 -0.000005 -0.000004 -1.128100 -7.156483 1.627747 0.631171 -0.000003 0.000003 -0.014564 69.333701 -6.461785 -3.230778 25.457667 7.355617 -0.001052 
50.439896 -4.127774 85.765503 -4.898279 1.618451 0.632223 -1.000234 0.207319 -0.111987 2.007953 0.417209 -0.221983 3.653055 0.414534 -0.226831 9.092949 -6.090671 0.166688 7.830230 2.533418 0.588189 -5.996377 -65.080392 -7.564903 -49.649075 -113.799175 -42.791087 0.000000 -0.000001 -0.000002 5.184246 -13.937897 0.240886 -0.000000 -0.000005 -3.001740 -5.000239 -7.998763 0.000179 0.469434 53.531276 -1.276013 -34.835587 117.504566 31.036619 0.000002 0.000001 0.000003 4.408854 9.251852 0.228467 0.000000 0.000003 3.013830 -5.000229 7.998823 -0.000154 4.674213 -176.589350 0.391870 -179.999991 0.000005 -1.216998 175.067160 -2.004558 -0.477977 0.000001 0.000002 0.041509 68.912463 6.933808 2.031811 25.456957 -7.355616 -0.000000 2.983014 172.512041 -1.921214 -0.000005 -0.000004 -1.128960 -7.161607 1.653238 0.632345 -0.000003 0.000003 -0.015451 69.334364 -6.465737 -3.220361 25.457667 7.355617 -0.001052 
50.438396 -4.117162 85.757492 -4.896814 1.623964 0.629003 -1.001407 0.206529 -0.111888 2.004972 0.415227 -0.221729 3.650075 0.412553 -0.226570 9.123896 -6.092231 0.168490 7.852228 2.532680 0.587653 -5.994731 -65.092297 -7.563991 -49.786946 -113.799032 -42.805099 0.000002 -0.000001 -0.000002 5.068430 -13.868475 0.218450 -0.000000 -0.000005 -3.001740 -5.000239 -7.998763 0.000179 0.478809 53.533144 -1.287093 -34.840570 117.482177 30.974840 -0.000001 0.000001 0.000004 4.407751 9.200749 0.232233 -0.000003 0.000003 3.013830 -5.000230 7.998823 -0.000154 4.670947 -176.597314 0.386205 -179.999991 0.000005 -1.216998 175.065999 -2.002554 -0.477845 0.000002 0.000002 0.041509 68.912367 6.933839 2.031721 25.456960 -7.355616 -0.000000 2.979319 172.493040 -1.948642 -0.000005 -0.000004 -1.129810 -7.166701 1.678194 0.633522 -0.000003 0.000003 -0.016325 69.335019 -6.469657 -3.210141 25.457665 7.355617 -0.001052 
50.413097 -4.110833 85.754890 -4.895642 1.629258 0.625804 -1.002508 0.205766 -0.111795 2.002122 0.413322 -0.221482 3.647224 0.410648 -0.226316 9.154702 -6.093872 0.170309 7.874670 2.532078 0.587128 -5.993295 -65.104093 -7.563311 -49.925309 -113.799243 -42.818750 0.000003 -0.000001 -0.000003 4.952150 -13.798586 0.196143 -0.000004 -0.000005 -3.001740 -5.000242 -7.998763 0.000179 0.487956 53.534804 -1.297936 -34.846129 117.459952 30.913190 0.000002 0.000001 0.000003 4.406157 9.149242 0.236063 -0.000002 0.000003 3.013830 -5.000232 7.998823 -0.000155 4.668013 -176.605264 0.380848 -179.999991 0.000005 -1.216998 175.064811 -2.001557 -0.477801 0.000001 0.000003 0.041509 68.912251 6.933833 2.031627 25.456959 -7.355614 -0.000000 2.975975 172.476046 -1.974650 -0.000004 -0.000005 -1.130610 -7.171741 1.701819 0.634694 -0.000003 0.000003 -0.017169 69.335805 -6.473309 -3.200662 25.457665 7.355617 -0.001051 
50.425396 -4.112993 85.748207 -4.894940 1.634201 0.622636 -1.003505 0.205049 -0.111715 1.999501 0.411536 -0.221245 3.644593 0.408865 -0.226075 9.185280 -6.095630 0.172149 7.897810 2.531708 0.586620 -5.992219 -65.115684 -7.563031 -50.066212 -113.799332 -42.833742 0.000000 -0.000002 -0.000002 4.835072 -13.727740 0.173858 -0.000001 -0.000005 -3.001739 -5.000239 -7.998764 0.000179 0.496729 53.535873 -1.308391 -34.852078 117.437835 30.851261 0.000003 0.000002 0.000003 4.403771 9.097098 0.239995 -0.000002 0.000003 3.013829 -5.000230 7.998823 -0.000155 4.665638 -176.612231 0.376067 -179.999991 0.000005 -1.216998 175.063636 -1.999567 -0.477670 0.000001 0.000002 0.041509 68.912149 6.933826 2.031633 25.456960 -7.355616 0.000000 2.973220 172.459053 -1.998553 -0.000005 -0.000005 -1.131350 -7.176693 1.723330 0.635859 -0.000002 0.000003 -0.017963 69.336809 -6.476626 -3.192010 25.457662 7.355616 -0.001052 
50.434502 -4.124443 85.751602 -4.894877 1.638655 0.619510 -1.004364 0.204393 -0.111651 1.997181 0.409918 -0.221023 3.642272 0.407248 -0.225848 9.215547 -6.097552 0.174023 7.921913 2.531650 0.586133 -5.991612 -65.127042 -7.563257 -50.210336 -113.799599 -42.850244 -0.000000 -0.000001 -0.000002 4.716868 -13.655742 0.151515 -0.000002 -0.000005 -3.001739 -5.000241 -7.998764 0.000179 0.504991 53.536341 -1.318317 -34.858939 117.415979 30.789308 -0.000001 0.000000 0.000004 4.400289 9.044080 0.244067 -0.000003 0.000003 3.013830 -5.000231 7.998823 -0.000156 4.663996 -176.618214 0.372047 -179.999991 0.000005 -1.216998 175.062461 -1.998557 -0.477625 0.000001 0.000002 0.041509 68.912046 6.933821 2.031637 25.456960 -7.355615 -0.000000 2.971259 172.445051 -2.019415 -0.000004 -0.000004 -1.132000 -7.181516 1.741925 0.637010 -0.000003 0.000003 -0.018689 69.338154 -6.479377 -3.184636 25.457667 7.355616 -0.001052 
50.428196 -4.123015 85.751701 -4.895623 1.642499 0.616440 -1.005054 0.203816 -0.111607 1.995241 0.408510 -0.220820 3.640342 0.405842 -0.225643 9.245429 -6.099694 0.175937 7.947240 2.531989 0.585676 -5.991605 -65.138080 -7.564146 -50.359446 -113.799401 -42.869638 0.000002 -0.000000 -0.000003 4.597220 -13.582195 0.129027 -0.000001 -0.000005 -3.001739 -5.000243 -7.998764 0.000179 0.512601 53.536003 -1.327568 -34.866760 117.394382 30.727119 0.000001 0.000001 0.000003 4.395438 8.989929 0.248313 -0.000000 0.000003 3.013830 -5.000234 7.998824 -0.000155 4.663300 -176.623187 0.368970 -179.999991 0.000006 -1.216998 175.061314 -1.998553 -0.477665 0.000001 0.000003 0.041509 68.911841 6.933843 2.031655 25.456960 -7.355614 0.000000 2.970305 172.434068 -2.036444 -0.000005 -0.000004 -1.132541 -7.186167 1.756820 0.638142 -0.000002 0.000003 -0.019328 69.339753 -6.481551 -3.178940 25.457667 7.355617 -0.001052 
